<svg width="457" height="55" viewBox="0 0 457 55" fill="none" xmlns="http://www.w3.org/2000/svg">
<rect width="457" height="55" rx="27.5" fill="black"/>
<path d="M37.75 19.544H30.518V39H25.494V19.544H18.262V15.864H37.75V19.544ZM54.3843 39H49.7443V30.392C49.7443 28.152 49.5843 25.752 46.6723 25.752C43.7603 25.752 43.2803 28.984 43.2803 30.648V39H38.6083V15.864H43.2803V25.208C44.6563 23.448 46.2563 22.584 48.4643 22.584C52.4003 22.584 54.3843 24.696 54.3843 28.568V39ZM73.291 31.832H61.643C61.611 34.264 62.635 36.568 65.355 36.568C67.243 36.568 68.331 35.64 68.587 33.752H73.131C72.555 37.944 69.067 39.352 65.291 39.352C60.075 39.352 57.099 36.408 57.099 31.192C57.099 25.816 59.915 22.424 65.451 22.424C68.587 22.424 71.339 23.704 72.587 26.712C73.259 28.28 73.291 29.912 73.291 31.832ZM68.779 29.144C68.779 26.712 67.659 25.176 65.419 25.176C63.115 25.176 61.739 26.84 61.739 29.144H68.779ZM107.676 39H102.14L100.156 33.688H90.044L88.06 39H83.1L92.476 15.864H98.14L107.676 39ZM98.844 30.296L95.132 19.448L91.26 30.296H98.844ZM125.078 22.872C125.046 24.664 124.982 26.328 124.982 27.352V35.992C124.982 42.328 122.518 45.4 116.502 45.4C113.206 45.4 108.918 44.472 108.918 40.376V40.12H113.334C113.366 42.008 114.902 42.584 116.534 42.584C119.574 42.584 120.214 40.696 120.31 38.232C120.342 37.496 120.31 36.76 120.31 35.992C119.062 37.816 117.334 38.68 115.158 38.68C110.39 38.68 108.054 35.064 108.054 30.616C108.054 26.168 110.422 22.52 115.19 22.52C117.494 22.52 119.286 23.352 120.566 25.336V22.872H125.078ZM120.374 30.456C120.374 28.12 119.446 25.336 116.694 25.336C113.782 25.336 112.918 28.184 112.918 30.616C112.918 33.048 113.718 35.768 116.598 35.768C119.542 35.768 120.374 32.92 120.374 30.456ZM143.919 31.832H132.271C132.239 34.264 133.263 36.568 135.983 36.568C137.871 36.568 138.959 35.64 139.215 33.752H143.759C143.183 37.944 139.695 39.352 135.919 39.352C130.703 39.352 127.727 36.408 127.727 31.192C127.727 25.816 130.543 22.424 136.079 22.424C139.215 22.424 141.967 23.704 143.215 26.712C143.887 28.28 143.919 29.912 143.919 31.832ZM139.407 29.144C139.407 26.712 138.287 25.176 136.047 25.176C133.743 25.176 132.367 26.84 132.367 29.144H139.407ZM172.608 30.872C172.608 36.248 169.12 39.384 163.808 39.384C158.432 39.384 155.072 36.312 155.072 30.872C155.072 25.496 158.688 22.424 163.936 22.424C169.248 22.424 172.608 25.496 172.608 30.872ZM167.744 30.904C167.744 28.312 166.912 25.24 163.808 25.24C160.672 25.24 159.936 28.312 159.936 30.904C159.936 33.464 160.672 36.6 163.808 36.6C166.912 36.6 167.744 33.464 167.744 30.904ZM185.346 18.968C184.802 18.936 184.29 18.904 183.81 18.904C181.602 18.904 181.41 19.928 181.41 21.528V22.84H185.122V25.912H181.41V39H176.738V25.912H173.602V22.84H176.738V21.496C176.738 17.816 178.306 15.736 182.274 15.736C183.266 15.736 184.322 15.8 185.346 15.896V18.968ZM217.254 29.368C217.254 36.088 213.766 39.512 207.014 39.512C203.59 39.512 200.006 38.648 198.182 35.48C197.03 33.464 196.934 31.512 196.934 29.24V15.864H202.086V29.496C202.086 33.048 203.014 35.832 207.142 35.832C211.238 35.832 212.262 32.888 212.262 29.368V15.864H217.254V29.368ZM237.219 39H232.547V30.456C232.547 28.216 232.387 25.752 229.507 25.752C226.563 25.752 226.115 29.048 226.115 30.872V39H221.443V26.04C221.443 25.016 221.411 23.96 221.315 22.872H225.955L226.019 25.336C227.459 23.48 228.963 22.616 231.331 22.616C235.267 22.616 237.219 24.728 237.219 28.568V39ZM257.886 30.648C257.886 35.128 255.614 39.32 250.622 39.32C248.446 39.32 247.07 38.616 245.694 36.92V45.08H241.022V26.84C241.022 25.56 240.958 24.216 240.894 22.872H245.47L245.534 25.336C246.846 23.384 248.574 22.52 250.878 22.52C255.71 22.52 257.886 26.264 257.886 30.648ZM253.086 30.808C253.086 28.472 252.254 25.432 249.406 25.432C246.43 25.432 245.598 28.536 245.598 31C245.598 33.304 246.302 36.472 249.15 36.472C252.222 36.472 253.086 33.336 253.086 30.808ZM270.967 26.872C270.455 26.808 270.007 26.776 269.559 26.776C266.551 26.776 265.367 28.504 265.367 31.384V39H260.695V26.808C260.695 25.528 260.567 24.216 260.567 22.872H265.079L265.207 25.848C266.263 23.736 267.863 22.776 270.199 22.776C270.455 22.776 270.679 22.776 270.967 22.808V26.872ZM287.565 31.832H275.917C275.885 34.264 276.909 36.568 279.629 36.568C281.517 36.568 282.605 35.64 282.861 33.752H287.405C286.829 37.944 283.341 39.352 279.565 39.352C274.349 39.352 271.373 36.408 271.373 31.192C271.373 25.816 274.189 22.424 279.725 22.424C282.861 22.424 285.613 23.704 286.861 26.712C287.533 28.28 287.565 29.912 287.565 31.832ZM283.053 29.144C283.053 26.712 281.933 25.176 279.693 25.176C277.389 25.176 276.013 26.84 276.013 29.144H283.053ZM306.287 39H301.583L301.455 36.856C300.015 38.552 298.703 39.32 296.431 39.32C291.503 39.32 289.295 35.448 289.295 30.968C289.295 26.904 291.279 22.488 296.271 22.488C298.511 22.488 300.111 23.16 301.487 24.92V15.864H306.159V34.68C306.159 36.088 306.159 37.56 306.287 39ZM301.583 30.872C301.583 28.344 300.591 25.432 297.615 25.432C294.735 25.432 294.063 28.408 294.063 30.776C294.063 33.336 294.735 36.312 297.871 36.312C300.751 36.312 301.583 33.208 301.583 30.872ZM314.824 19.576H309.96V15.864H314.824V19.576ZM314.728 39H310.056V22.84H314.728V39ZM333.707 33.208C333.707 37.56 329.739 39.384 325.931 39.384C320.651 39.384 317.547 36.344 317.547 31.064C317.547 25.784 320.715 22.392 326.091 22.392C330.091 22.392 333.195 24.12 333.579 28.408H328.939C328.875 26.552 328.011 25.176 326.059 25.176C322.955 25.176 322.411 28.344 322.411 30.84C322.411 33.24 322.923 36.568 325.963 36.568C328.139 36.568 328.875 35.064 328.939 33.048H333.707V33.208ZM345.592 25.912H341.784V33.272C341.784 35.16 341.88 36.056 344.056 36.056C344.568 36.056 345.016 35.96 345.56 35.928V38.968C344.44 39.128 343.352 39.224 342.232 39.224C339 39.224 337.24 38.424 337.24 34.904V25.912H334.136V22.84H337.24V20.152L341.784 18.296V22.84H345.592V25.912ZM362.191 39H357.775C357.519 38.264 357.423 37.56 357.391 36.792C356.079 38.712 354.511 39.32 352.239 39.32C349.103 39.32 346.607 37.784 346.607 34.392C346.607 29.368 352.335 28.92 356.079 28.92H357.391V28.312C357.391 26.616 357.039 24.952 354.959 24.952C353.167 24.952 352.463 25.976 352.463 27.48H347.695C347.759 23.512 351.503 22.392 354.895 22.392C359.247 22.392 361.935 23.384 361.935 28.664V33.464C361.935 35.288 361.935 37.112 362.191 39ZM357.391 31.48C357.391 31.448 357.391 31.224 357.391 31.192C356.943 31.192 356.623 31.16 356.175 31.16C354.191 31.16 351.215 31.608 351.215 34.136C351.215 35.608 352.431 36.536 353.839 36.536C356.847 36.536 357.391 33.912 357.391 31.48ZM382.516 30.712C382.516 35.256 380.308 39.32 375.252 39.32C373.044 39.32 371.636 38.52 370.228 36.856L370.132 39H365.524C365.652 37.528 365.652 36.088 365.652 34.68V15.864H370.324V25.112C371.668 23.384 373.332 22.488 375.54 22.488C380.5 22.488 382.516 26.264 382.516 30.712ZM377.716 30.776C377.716 28.408 377.012 25.432 374.132 25.432C371.124 25.432 370.228 28.344 370.228 30.872C370.228 33.208 370.964 36.312 373.844 36.312C376.98 36.312 377.716 33.336 377.716 30.776ZM390.093 19.576H385.229V15.864H390.093V19.576ZM389.997 39H385.325V22.84H389.997V39ZM398.575 39H393.903V15.864H398.575V39ZM407.25 19.576H402.386V15.864H407.25V19.576ZM407.154 39H402.482V22.84H407.154V39ZM420.565 25.912H416.757V33.272C416.757 35.16 416.853 36.056 419.029 36.056C419.541 36.056 419.989 35.96 420.533 35.928V38.968C419.413 39.128 418.325 39.224 417.205 39.224C413.973 39.224 412.213 38.424 412.213 34.904V25.912H409.109V22.84H412.213V20.152L416.757 18.296V22.84H420.565V25.912ZM438.892 22.872L429.74 45.08H425.292L427.852 39.096L420.556 22.872H425.804L430.124 34.936L434.284 22.872H438.892Z" fill="white"/>
</svg>
