<svg width="393" height="55" viewBox="0 0 393 55" fill="none" xmlns="http://www.w3.org/2000/svg">
<rect width="393" height="55" rx="27.5" fill="black"/>
<path d="M40.8013 39H35.7773V29.112H25.7613V39H20.7373V15.864H25.7613V25.336H35.7773V15.864H40.8013V39ZM65.3123 15.832L56.3523 30.008V39H51.3283V30.008L42.3363 15.832H48.1923L54.0163 26.552L59.9043 15.832H65.3123ZM84.6555 23.064C84.6555 25.848 83.2155 28.216 80.6235 29.304C79.4395 29.784 77.8395 30.008 76.2395 30.008H71.8875V39H66.8635V15.864H75.4395C77.5835 15.864 79.8555 15.96 81.7115 17.208C83.7275 18.584 84.6555 20.664 84.6555 23.064ZM79.5675 22.84C79.5675 19.96 77.2315 19.416 74.8315 19.416H71.8875V26.456H74.4795C77.0075 26.456 79.5675 25.88 79.5675 22.84ZM103.473 39H87.5048V15.864H103.153V19.448H92.4328V25.464H102.577V29.016H92.4328V35.416H103.473V39ZM125.491 39H120.243C119.923 38.072 119.763 37.048 119.635 36.056C119.507 35.032 119.443 34.04 119.347 33.048C119.059 30.2 118.515 29.24 115.507 29.24H111.763V39H106.771V15.864H115.635C117.555 15.864 119.379 15.896 121.171 16.632C123.443 17.592 124.883 19.192 124.883 21.72C124.883 25.016 122.739 26.712 119.667 27.32V27.352C122.291 27.512 123.475 28.44 124.019 30.872C124.179 31.544 124.243 32.344 124.371 33.176C124.627 35.128 124.659 37.208 125.491 39ZM119.987 22.552C119.987 19.736 117.203 19.384 114.963 19.384H111.763V25.848H114.611C117.011 25.848 119.987 25.656 119.987 22.552ZM147.987 32.184C147.411 37.432 143.187 39.416 138.387 39.416C130.931 39.416 127.571 34.648 127.571 27.608C127.571 20.632 131.283 15.416 138.643 15.416C143.251 15.416 147.731 17.464 147.859 22.712H142.675C142.419 20.408 140.883 19.192 138.643 19.192C134.131 19.192 132.755 24.056 132.755 27.768C132.755 31.448 134.131 35.736 138.483 35.736C140.755 35.736 142.419 34.52 142.771 32.184H147.987ZM172.043 27.416C172.043 34.328 168.299 39.48 160.939 39.48C153.515 39.48 149.931 34.488 149.931 27.48C149.931 20.472 153.611 15.288 161.035 15.288C168.491 15.288 172.043 20.408 172.043 27.416ZM166.987 27.32C166.987 23.384 165.611 18.968 160.939 18.968C156.363 18.968 154.987 23.48 154.987 27.32C154.987 31.288 156.171 35.768 160.939 35.768C165.707 35.768 166.987 31.32 166.987 27.32ZM195.732 39H188.692L179.796 19.928V39H175.476V15.864H182.516L191.412 34.968V15.864H195.732V39ZM217.999 32.12C217.999 37.4 212.911 39.416 208.367 39.416C203.375 39.416 199.279 37.432 199.183 31.896H204.207C204.271 34.36 205.711 35.832 208.463 35.832C210.511 35.832 212.815 34.808 212.815 32.504C212.815 30.712 211.247 30.136 208.655 29.4L206.991 28.92C203.343 27.864 199.727 26.456 199.727 22.296C199.727 17.144 204.527 15.416 208.911 15.416C213.423 15.416 217.295 16.984 217.327 22.104H212.303C212.111 19.992 210.895 18.776 208.527 18.776C206.671 18.776 204.815 19.768 204.815 21.816C204.815 23.512 206.351 24.024 209.615 25.048L211.535 25.656C215.503 26.904 217.999 28.28 217.999 32.12ZM241.67 29.368C241.67 36.088 238.182 39.512 231.43 39.512C228.006 39.512 224.422 38.648 222.598 35.48C221.446 33.464 221.35 31.512 221.35 29.24V15.864H226.502V29.496C226.502 33.048 227.43 35.832 231.558 35.832C235.654 35.832 236.678 32.888 236.678 29.368V15.864H241.67V29.368ZM273.476 39H268.804V18.872L261.892 39H257.476L250.564 18.84V39H246.244V15.864H253.924L259.972 34.008L265.796 15.864H273.476V39ZM295.927 23.064C295.927 25.848 294.487 28.216 291.895 29.304C290.711 29.784 289.111 30.008 287.511 30.008H283.159V39H278.135V15.864H286.711C288.855 15.864 291.127 15.96 292.983 17.208C294.999 18.584 295.927 20.664 295.927 23.064ZM290.839 22.84C290.839 19.96 288.503 19.416 286.103 19.416H283.159V26.456H285.751C288.279 26.456 290.839 25.88 290.839 22.84ZM315.8 19.544H308.568V39H303.544V19.544H296.312V15.864H315.8V19.544ZM323.035 39H318.011V15.864H323.035V39ZM348.579 27.416C348.579 34.328 344.835 39.48 337.475 39.48C330.051 39.48 326.467 34.488 326.467 27.48C326.467 20.472 330.147 15.288 337.571 15.288C345.027 15.288 348.579 20.408 348.579 27.416ZM343.523 27.32C343.523 23.384 342.147 18.968 337.475 18.968C332.899 18.968 331.523 23.48 331.523 27.32C331.523 31.288 332.707 35.768 337.475 35.768C342.243 35.768 343.523 31.32 343.523 27.32ZM372.268 39H365.228L356.332 19.928V39H352.012V15.864H359.052L367.948 34.968V15.864H372.268V39Z" fill="white"/>
</svg>
