<svg width="441" height="90" viewBox="0 0 441 90" fill="none" xmlns="http://www.w3.org/2000/svg">
<rect width="441" height="90" rx="24" fill="#0088FF"/>
<path d="M43.6998 71.08C28.6518 71.08 19.6518 62.584 19.6518 44.512C19.6518 27.232 28.7958 18.52 43.9878 18.52C57.5238 18.52 65.8758 24.712 65.8758 35.368V36.88H55.7238V34.36C55.7238 28.888 53.7798 27.52 47.0838 27.52H42.4038C33.1158 27.52 30.5238 30.616 30.5238 44.512C30.5238 58.912 33.2598 62.08 42.5478 62.08H47.1558C53.8518 62.08 56.0118 60.784 56.0118 55.312V52.504H66.3078V53.152C66.3078 64.96 57.8838 71.08 43.6998 71.08ZM105.843 19.6H116.427V47.176C116.427 62.944 109.299 71.08 95.1865 71.08C79.7065 71.08 74.0185 60.856 74.0185 47.176V19.6H84.6025V52.864C84.6025 58.48 86.3305 62.08 94.5385 62.08H95.9065C104.115 62.08 105.843 58.48 105.843 52.864V19.6ZM125.906 19.6H136.49V30.472L150.962 19.6H166.586L130.154 44.728L169.61 70H151.322L136.49 59.848V70H125.906V19.6ZM194.782 28.312H184.918V42.712H194.566C201.838 42.712 203.926 40.552 203.926 35.296C203.926 29.968 202.126 28.312 194.782 28.312ZM204.718 70L195.43 50.992H184.918V70H174.334V19.6H194.35C205.438 19.6 214.366 24.496 214.366 34.432V35.224C214.366 41.992 209.398 47.392 197.158 47.536L207.166 56.752L218.542 70H204.718ZM252.894 52.216L245.046 19.6H253.974L268.014 70H256.566L254.334 60.712H234.462L232.23 70H220.854L234.894 19.6H243.606L235.902 52.216H252.894ZM295.084 28.312H285.22V42.712H294.868C302.14 42.712 304.228 40.552 304.228 35.296C304.228 29.968 302.428 28.312 295.084 28.312ZM305.02 70L295.732 50.992H285.22V70H274.636V19.6H294.652C305.74 19.6 314.668 24.496 314.668 34.432V35.224C314.668 41.992 309.7 47.392 297.46 47.536L307.468 56.752L318.844 70H305.02ZM324.612 70V19.6H334.62L351.396 41.344L359.1 63.808V19.6H369.108V70H359.1L342.18 48.256L334.62 25.864V70H324.612ZM407.741 52.216L399.893 19.6H408.821L422.861 70H411.413L409.181 60.712H389.309L387.077 70H375.701L389.741 19.6H398.453L390.749 52.216H407.741Z" fill="white"/>
</svg>
