<svg width="214" height="214" viewBox="0 0 214 214" fill="none" xmlns="http://www.w3.org/2000/svg">
<g filter="url(#filter0_f_1376_446)">
<circle cx="106.699" cy="106.7" r="73" fill="#AC00FF"/>
</g>
<path d="M66.6923 84.794L60.9723 100.7H56.1763L50.5663 84.794H54.9663L58.7503 97.004L62.6883 84.794H66.6923ZM78.0618 97.334C78.0618 100.04 75.2458 100.964 72.4958 100.964C69.7458 100.964 66.9958 100.194 66.9958 97.158H70.7358C70.7798 98.434 71.3298 99.072 72.5618 99.072C73.4858 99.072 74.4098 98.61 74.4098 97.664C74.4098 97.004 73.7938 96.608 72.4298 96.278L70.6478 95.86C68.8658 95.442 67.3038 94.738 67.3038 92.78C67.3038 90.03 70.2518 89.326 72.4298 89.326C74.8498 89.326 77.6218 90.052 77.7318 92.912H74.1238C74.1018 91.812 73.4418 91.196 72.4518 91.196C71.6598 91.196 70.8018 91.57 70.8018 92.406C70.8018 93.022 71.2198 93.352 72.0338 93.55L74.4318 94.122C76.9398 94.716 78.0618 95.574 78.0618 97.334ZM87.1563 92.01H84.4723V96.608C84.4723 97.906 84.7363 98.368 86.0563 98.368C86.3863 98.368 86.7603 98.346 87.1343 98.28V100.678C86.2543 100.788 85.4403 100.876 84.6483 100.876C81.9423 100.876 80.7763 100.238 80.7763 97.554V92.01H78.6863V89.59H80.7763V87.61L84.4723 86.158V89.59H87.1563V92.01ZM100.802 95.112C100.802 98.852 98.3378 100.964 94.3558 100.964C90.3958 100.964 87.9978 98.852 87.9978 95.112C87.9978 93.396 88.5918 91.988 89.6038 90.998C90.7478 89.898 92.3978 89.304 94.4658 89.304C98.3818 89.304 100.802 91.438 100.802 95.112ZM96.8418 95.112C96.8418 93.242 96.2698 91.394 94.3558 91.394C92.4418 91.394 91.9358 93.242 91.9358 95.112C91.9358 95.992 92.0678 96.96 92.4418 97.686C92.8158 98.434 93.4098 98.874 94.3778 98.874C96.2698 98.874 96.8418 96.96 96.8418 95.112ZM115.155 94.98C115.155 98.258 113.527 100.942 110.095 100.942C108.533 100.942 107.587 100.48 106.575 99.27V104.88H102.725V92.34C102.725 91.658 102.703 90.294 102.659 89.59H106.443L106.487 91.218C107.411 89.92 108.599 89.348 110.205 89.348C113.549 89.348 115.155 91.79 115.155 94.98ZM111.217 95.09C111.217 93.308 110.667 91.504 108.885 91.504C107.037 91.504 106.487 93.33 106.487 95.156C106.487 96.938 106.949 98.83 108.753 98.83C110.645 98.83 111.217 96.982 111.217 95.09ZM128.71 100.7H124.86V94.716C124.86 93.308 124.816 91.746 122.968 91.746C121.186 91.746 120.922 93.572 120.922 94.958V100.7H117.072V93.176C117.072 92.67 117.05 90.448 117.006 89.59H120.768C120.812 90.36 120.856 91.196 120.856 91.306C121.934 89.986 122.946 89.436 124.618 89.436C127.522 89.436 128.71 90.756 128.71 93.66V100.7ZM135.118 87.588H131.268V84.794H135.118V87.588ZM135.118 100.7H131.268V89.59H135.118V100.7ZM148.906 96.498C148.708 99.974 146.398 100.964 143.164 100.964C141.118 100.964 139.688 100.48 138.654 99.512C137.62 98.522 137.026 97.026 137.026 95.222C137.026 93.396 137.642 91.856 138.742 90.822C139.798 89.832 141.316 89.282 143.318 89.282C146.508 89.282 148.598 90.514 148.862 93.594H145.1C145.056 92.208 144.506 91.35 143.252 91.35C141.36 91.35 140.964 93.242 140.964 95.09C140.964 96.916 141.316 98.852 143.186 98.852C144.572 98.852 145.056 97.95 145.1 96.498H148.906ZM161.924 95.772H153.63C153.652 97.51 154.29 98.918 156.028 98.918C157.282 98.918 158.008 98.28 158.162 97.026H161.814C161.66 98.082 161.198 98.896 160.494 99.534C159.394 100.546 157.81 100.942 155.984 100.942C153.762 100.942 152.222 100.37 151.188 99.204C150.352 98.258 149.89 96.894 149.89 95.31C149.89 91.592 151.98 89.304 156.05 89.304C158.558 89.304 160.516 90.25 161.418 92.34C161.858 93.352 161.924 94.386 161.924 95.772ZM158.228 93.88C158.228 92.23 157.502 91.262 156.072 91.262C154.62 91.262 153.696 92.296 153.696 93.88H158.228ZM57.8301 124.7H47.7321V122.302L53.3641 115.988H48.0181V113.59H57.6761V116.054L52.2421 122.346H57.8301V124.7ZM57.0601 108.618L54.4641 111.874H51.0101L48.4361 108.618H51.0321L52.7921 110.488L54.4861 108.618H57.0601ZM70.6136 119.772H62.3196C62.3416 121.51 62.9796 122.918 64.7176 122.918C65.9716 122.918 66.6976 122.28 66.8516 121.026H70.5036C70.3496 122.082 69.8876 122.896 69.1836 123.534C68.0836 124.546 66.4996 124.942 64.6736 124.942C62.4516 124.942 60.9116 124.37 59.8776 123.204C59.0416 122.258 58.5796 120.894 58.5796 119.31C58.5796 115.592 60.6696 113.304 64.7396 113.304C67.2476 113.304 69.2056 114.25 70.1076 116.34C70.5476 117.352 70.6136 118.386 70.6136 119.772ZM66.9176 117.88C66.9176 116.23 66.1916 115.262 64.7616 115.262C63.3096 115.262 62.3856 116.296 62.3856 117.88H66.9176ZM91.1491 124.7H87.2991V118.716C87.2991 117.308 87.2551 115.746 85.4071 115.746C83.6251 115.746 83.3611 117.572 83.3611 118.958V124.7H79.5111V117.176C79.5111 116.67 79.4891 114.448 79.4451 113.59H83.2071C83.2511 114.36 83.2951 115.196 83.2951 115.306C84.3731 113.986 85.3851 113.436 87.0571 113.436C89.9611 113.436 91.1491 114.756 91.1491 117.66V124.7ZM104.553 124.7H100.945C100.791 124.172 100.725 123.688 100.681 123.05C99.8011 124.436 98.6571 124.92 96.9191 124.92C94.6091 124.92 92.9371 123.82 92.9371 121.51C92.9371 118.276 96.4351 117.77 99.6471 117.77H100.681V117.066C100.681 116.076 100.285 115.152 99.0531 115.152C97.8871 115.152 97.4031 115.79 97.4031 116.78H93.6411C93.7291 113.942 96.6551 113.304 99.0091 113.304C100.989 113.304 102.441 113.568 103.343 114.492C104.025 115.174 104.377 116.12 104.377 117.66V121.158C104.377 122.434 104.377 123.49 104.553 124.7ZM100.681 119.552V119.398C100.417 119.376 99.8671 119.376 99.6691 119.376C98.3271 119.376 96.5891 119.794 96.5891 121.312C96.5891 122.258 97.3591 122.874 98.2831 122.874C100.241 122.874 100.681 121.224 100.681 119.552ZM125.729 113.59L121.197 124.7H116.929L112.375 113.59H116.511L119.173 121.598L121.945 113.59H125.729ZM138.599 119.112C138.599 122.852 136.135 124.964 132.153 124.964C128.193 124.964 125.795 122.852 125.795 119.112C125.795 117.396 126.389 115.988 127.401 114.998C128.545 113.898 130.195 113.304 132.263 113.304C136.179 113.304 138.599 115.438 138.599 119.112ZM134.639 119.112C134.639 117.242 134.067 115.394 132.153 115.394C130.239 115.394 129.733 117.242 129.733 119.112C129.733 119.992 129.865 120.96 130.239 121.686C130.613 122.434 131.207 122.874 132.175 122.874C134.067 122.874 134.639 120.96 134.639 119.112ZM144.372 124.7H140.522V108.794H144.372V124.7ZM150.813 111.588H146.963V108.794H150.813V111.588ZM150.813 125.47C150.813 127.076 150.483 127.846 149.735 128.352C149.119 128.77 148.327 128.924 146.853 128.924C146.017 128.924 145.555 128.902 145.203 128.88V126.438C145.445 126.482 145.577 126.482 145.731 126.482C146.743 126.46 146.963 125.712 146.963 124.722V113.59H150.813V125.47ZM165.525 119.112C165.525 122.852 163.061 124.964 159.079 124.964C155.119 124.964 152.721 122.852 152.721 119.112C152.721 117.396 153.315 115.988 154.327 114.998C155.471 113.898 157.121 113.304 159.189 113.304C163.105 113.304 165.525 115.438 165.525 119.112ZM161.565 119.112C161.565 117.242 160.993 115.394 159.079 115.394C157.165 115.394 156.659 117.242 156.659 119.112C156.659 119.992 156.791 120.96 157.165 121.686C157.539 122.434 158.133 122.874 159.101 122.874C160.993 122.874 161.565 120.96 161.565 119.112Z" fill="white"/>
<defs>
<filter id="filter0_f_1376_446" x="-0.000782013" y="1.14441e-05" width="213.4" height="213.4" filterUnits="userSpaceOnUse" color-interpolation-filters="sRGB">
<feFlood flood-opacity="0" result="BackgroundImageFix"/>
<feBlend mode="normal" in="SourceGraphic" in2="BackgroundImageFix" result="shape"/>
<feGaussianBlur stdDeviation="16.85" result="effect1_foregroundBlur_1376_446"/>
</filter>
</defs>
</svg>
