<svg width="282" height="55" viewBox="0 0 282 55" fill="none" xmlns="http://www.w3.org/2000/svg">
<rect width="282" height="55" rx="27.5" fill="black"/>
<path d="M40.9981 39H35.9741V29.112H25.9581V39H20.9341V15.864H25.9581V25.336H35.9741V15.864H40.9981V39ZM50.6931 39H45.6691V15.864H50.6931V39ZM73.1649 23.064C73.1649 25.848 71.7249 28.216 69.1329 29.304C67.9489 29.784 66.3489 30.008 64.7489 30.008H60.3969V39H55.3729V15.864H63.9489C66.0929 15.864 68.3649 15.96 70.2209 17.208C72.2369 18.584 73.1649 20.664 73.1649 23.064ZM68.0769 22.84C68.0769 19.96 65.7409 19.416 63.3409 19.416H60.3969V26.456H62.9889C65.5169 26.456 68.0769 25.88 68.0769 22.84ZM91.9821 39H76.0141V15.864H91.6621V19.448H80.9421V25.464H91.0861V29.016H80.9421V35.416H91.9821V39ZM114 39H108.752C108.432 38.072 108.272 37.048 108.144 36.056C108.016 35.032 107.952 34.04 107.856 33.048C107.568 30.2 107.024 29.24 104.016 29.24H100.272V39H95.2804V15.864H104.144C106.064 15.864 107.888 15.896 109.68 16.632C111.952 17.592 113.392 19.192 113.392 21.72C113.392 25.016 111.248 26.712 108.176 27.32V27.352C110.8 27.512 111.984 28.44 112.528 30.872C112.688 31.544 112.752 32.344 112.88 33.176C113.136 35.128 113.168 37.208 114 39ZM108.496 22.552C108.496 19.736 105.712 19.384 103.472 19.384H100.272V25.848H103.12C105.52 25.848 108.496 25.656 108.496 22.552ZM137.872 39H131.6L122.416 26.296L130.736 15.864H136.816L127.728 26.104L137.872 39ZM122.352 39H117.328V15.864H122.352V39ZM159.646 27.416C159.646 34.328 155.902 39.48 148.542 39.48C141.118 39.48 137.534 34.488 137.534 27.48C137.534 20.472 141.214 15.288 148.638 15.288C156.094 15.288 159.646 20.408 159.646 27.416ZM154.59 27.32C154.59 23.384 153.214 18.968 148.542 18.968C143.966 18.968 142.59 23.48 142.59 27.32C142.59 31.288 143.774 35.768 148.542 35.768C153.31 35.768 154.59 31.32 154.59 27.32ZM183.335 39H176.295L167.399 19.928V39H163.079V15.864H170.119L179.015 34.968V15.864H183.335V39ZM205.602 32.12C205.602 37.4 200.514 39.416 195.97 39.416C190.978 39.416 186.882 37.432 186.786 31.896H191.81C191.874 34.36 193.314 35.832 196.066 35.832C198.114 35.832 200.418 34.808 200.418 32.504C200.418 30.712 198.85 30.136 196.258 29.4L194.594 28.92C190.946 27.864 187.33 26.456 187.33 22.296C187.33 17.144 192.13 15.416 196.514 15.416C201.026 15.416 204.898 16.984 204.93 22.104H199.906C199.714 19.992 198.498 18.776 196.13 18.776C194.274 18.776 192.418 19.768 192.418 21.816C192.418 23.512 193.954 24.024 197.218 25.048L199.138 25.656C203.106 26.904 205.602 28.28 205.602 32.12ZM229.273 29.368C229.273 36.088 225.785 39.512 219.033 39.512C215.609 39.512 212.025 38.648 210.201 35.48C209.049 33.464 208.953 31.512 208.953 29.24V15.864H214.105V29.496C214.105 33.048 215.033 35.832 219.161 35.832C223.257 35.832 224.281 32.888 224.281 29.368V15.864H229.273V29.368ZM261.079 39H256.407V18.872L249.495 39H245.079L238.167 18.84V39H233.847V15.864H241.527L247.575 34.008L253.399 15.864H261.079V39Z" fill="white"/>
</svg>
