<svg width="138" height="107" viewBox="0 0 138 107" fill="none" xmlns="http://www.w3.org/2000/svg">
<rect width="138" height="107" rx="53.5" fill="#FF2D55"/>
<path d="M30.0525 67.608V63.672H43.8765V66.648C43.8765 74.04 47.6205 76.728 55.3965 76.728H56.1645C67.2045 76.728 71.4285 68.664 71.7165 52.056C68.5485 56.856 62.8845 60.408 53.4765 60.408C37.9245 60.408 30.6285 51.576 30.6285 41.592V40.536C30.6285 24.888 41.1885 18.36 56.6445 18.36H58.4685C74.8845 18.36 84.8685 30.072 84.8685 52.92V54.168C84.8685 72.984 76.6125 88.44 55.8765 88.44H54.2445C38.3085 88.44 30.0525 81.144 30.0525 67.608ZM57.6045 29.976C48.7725 29.976 44.8365 33.048 44.8365 41.208C44.8365 49.656 48.9645 52.92 57.3165 52.92C67.9725 52.92 70.7565 47.064 70.7565 40.728C70.7565 33.24 67.1085 29.976 57.6045 29.976ZM106.725 87H91.653V72.504H106.725V87Z" fill="black"/>
</svg>
