<svg width="500" height="100" viewBox="0 0 500 100" fill="none" xmlns="http://www.w3.org/2000/svg">
<path d="M450 0C477.614 0 500 22.3858 500 50C500 77.6142 477.614 100 450 100C440.893 100 432.354 97.564 425 93.3096C417.646 97.564 409.107 100 400 100C390.893 100 382.354 97.564 375 93.3096C367.646 97.564 359.107 100 350 100C340.893 100 332.354 97.564 325 93.3096C317.646 97.564 309.107 100 300 100C290.893 100 282.354 97.564 275 93.3096C267.646 97.564 259.107 100 250 100C240.893 100 232.354 97.564 225 93.3096C217.646 97.564 209.107 100 200 100C190.893 100 182.354 97.564 175 93.3096C167.646 97.564 159.107 100 150 100C140.893 100 132.354 97.564 125 93.3096C117.646 97.564 109.107 100 100 100C90.8926 100 82.3545 97.564 75 93.3096C67.6455 97.564 59.1074 100 50 100C22.3858 100 0 77.6142 0 50C0 22.3858 22.3858 0 50 0C59.1072 0 67.6456 2.43515 75 6.68945C82.3544 2.43515 90.8928 0 100 0C109.107 0 117.646 2.43515 125 6.68945C132.354 2.43515 140.893 0 150 0C159.107 0 167.646 2.43515 175 6.68945C182.354 2.43515 190.893 0 200 0C209.107 0 217.646 2.43515 225 6.68945C232.354 2.43515 240.893 0 250 0C259.107 0 267.646 2.43515 275 6.68945C282.354 2.43515 290.893 0 300 0C309.107 0 317.646 2.43515 325 6.68945C332.354 2.43515 340.893 0 350 0C359.107 0 367.646 2.43515 375 6.68945C382.354 2.43515 390.893 0 400 0C409.107 0 417.646 2.43515 425 6.68945C432.354 2.43515 440.893 0 450 0Z" fill="#34C759"/>
<path d="M45.1189 68.88H49.2229V24.6H55.9189V68.88H80.6869V75H45.1189V68.88ZM113.79 55.344V24.6H120.486V54.552C120.486 69.096 113.286 76.08 102.126 76.08C90.5335 76.08 83.7655 69.456 83.7655 57.648V55.992H90.4615V57.936C90.4615 68.664 92.4775 70.176 101.838 70.176H102.486C112.35 70.176 113.79 66 113.79 55.344ZM164.824 24.6H171.52V49.152C171.52 67.872 166.48 76.08 151.288 76.08C134.872 76.08 131.128 66.36 131.128 49.584V24.6H137.824V58.08C137.824 66.144 140.848 70.176 149.992 70.176H152.656C161.8 70.176 164.824 66.144 164.824 58.08V24.6ZM201.814 75H182.806V24.6H201.814C216.214 24.6 221.038 30.36 221.038 38.136C221.038 44.256 218.086 48.216 212.11 49.224C218.23 50.592 221.11 54.912 221.11 61.032C221.11 68.52 215.854 75 201.814 75ZM201.382 50.952H189.502V69.024H202.966C213.478 69.024 214.342 66.576 214.342 60.96V59.304C214.342 52.32 211.174 50.952 201.382 50.952ZM202.534 30.576H189.502V47.424H201.31C210.382 47.424 214.342 47.28 214.342 39.72V37.992C214.342 31.656 212.902 30.576 202.534 30.576ZM227.301 68.88H231.405V24.6H238.101V68.88H262.869V75H227.301V68.88ZM295.972 55.344V24.6H302.668V54.552C302.668 69.096 295.468 76.08 284.308 76.08C272.716 76.08 265.948 69.456 265.948 57.648V55.992H272.644V57.936C272.644 68.664 274.66 70.176 284.02 70.176H284.668C294.532 70.176 295.972 66 295.972 55.344ZM340.748 59.736L330.668 24.6H336.572L352.196 75H344.852L342.116 65.496H316.7L313.964 75H306.908L322.532 24.6H328.148L318.068 59.736H340.748ZM360.348 75V24.6H366.468L384.612 47.28L396.348 71.184V24.6H402.468V75H396.348L378.204 52.32L366.468 28.488V75H360.348ZM444.425 59.736L434.345 24.6H440.249L455.873 75H448.529L445.793 65.496H420.377L417.641 75H410.585L426.209 24.6H431.825L421.745 59.736H444.425Z" fill="white"/>
</svg>
