<svg width="435" height="90" viewBox="0 0 435 90" fill="none" xmlns="http://www.w3.org/2000/svg">
<rect width="435" height="90" rx="24" fill="#0088FF"/>
<path d="M44.5453 71.08C28.7053 71.08 20.0653 63.16 20.0653 44.8C20.0653 26.728 28.2733 18.52 44.0413 18.52C58.8733 18.52 64.0573 25 64.0573 36.664V37.816H57.6493V34.792C57.6493 27.232 57.0013 24.496 44.9773 24.496H42.3853C31.0813 24.496 26.9773 28.24 26.9773 44.8C26.9773 61.576 31.4413 65.104 43.0333 65.104H45.4813C56.8573 65.104 58.0813 62.368 58.0813 54.808V50.992H64.4893V52.936C64.4893 64.024 59.3773 71.08 44.5453 71.08ZM106.95 19.6H113.646V44.152C113.646 62.872 108.606 71.08 93.4136 71.08C76.9976 71.08 73.2536 61.36 73.2536 44.584V19.6H79.9496V53.08C79.9496 61.144 82.9736 65.176 92.1176 65.176H94.7816C103.926 65.176 106.95 61.144 106.95 53.08V19.6ZM124.932 19.6H131.628V35.44L152.94 19.6H162.3L127.452 44.8L165.108 70H154.02L131.628 54.88V70H124.932V19.6ZM191.543 25.72H178.439V43.792H191.903C200.111 43.792 203.063 41.2 203.063 34.36C203.063 26.728 200.903 25.72 191.543 25.72ZM204.647 70L190.463 49.336H178.439V70H171.743V19.6H190.607C201.479 19.6 209.903 23.992 209.903 33.784V34.504C209.903 41.704 203.495 46.6 191.183 46.744L201.263 55.528L214.007 70H204.647ZM251.32 54.736L241.24 19.6H247.144L262.768 70H255.424L252.688 60.496H227.272L224.536 70H217.48L233.104 19.6H238.72L228.64 54.736H251.32ZM290.72 25.72H277.616V43.792H291.08C299.288 43.792 302.24 41.2 302.24 34.36C302.24 26.728 300.08 25.72 290.72 25.72ZM303.824 70L289.64 49.336H277.616V70H270.92V19.6H289.784C300.656 19.6 309.08 23.992 309.08 33.784V34.504C309.08 41.704 302.672 46.6 290.36 46.744L300.44 55.528L313.184 70H303.824ZM320.474 70V19.6H326.594L344.738 42.28L356.474 66.184V19.6H362.594V70H356.474L338.33 47.32L326.594 23.488V70H320.474ZM404.551 54.736L394.471 19.6H400.375L415.999 70H408.655L405.919 60.496H380.503L377.767 70H370.711L386.335 19.6H391.951L381.871 54.736H404.551Z" fill="white"/>
</svg>
