<svg width="517" height="107" viewBox="0 0 517 107" fill="none" xmlns="http://www.w3.org/2000/svg">
<rect width="517" height="107" rx="53.5" fill="#FF2D55"/>
<path d="M61.7598 88.44C41.1198 88.44 28.8318 77.112 28.8318 53.016C28.8318 29.496 41.1198 18.36 61.7598 18.36C82.3998 18.36 94.6878 29.496 94.6878 53.016C94.6878 77.112 82.3998 88.44 61.7598 88.44ZM64.5438 30.36H58.9758C46.5918 30.36 43.3278 34.488 43.3278 53.016C43.3278 72.216 46.7838 76.44 59.1678 76.44H64.3518C76.7358 76.44 80.1918 72.216 80.1918 53.016C80.1918 34.488 76.9278 30.36 64.5438 30.36ZM105.558 19.8H119.67V34.296L138.966 19.8H159.798L111.222 53.304L163.83 87H139.446L119.67 73.464V87H105.558V19.8ZM163.262 31.704V19.8H214.622V31.704H195.998V87H181.886V31.704H163.262ZM248.63 88.44C227.99 88.44 215.702 77.112 215.702 53.016C215.702 29.496 227.99 18.36 248.63 18.36C269.27 18.36 281.558 29.496 281.558 53.016C281.558 77.112 269.27 88.44 248.63 88.44ZM251.414 30.36H245.846C233.462 30.36 230.198 34.488 230.198 53.016C230.198 72.216 233.654 76.44 246.038 76.44H251.222C263.606 76.44 267.062 72.216 267.062 53.016C267.062 34.488 263.798 30.36 251.414 30.36ZM319.404 87H292.428V19.8H319.02C341.292 19.8 346.476 29.592 346.476 39.672C346.476 46.008 343.212 51.096 336.204 52.536C343.884 54.36 347.244 60.408 347.244 66.552C347.244 77.976 339.084 87 319.404 87ZM320.076 55.896H306.54V75.384H324.204C331.884 75.384 333.228 72.504 333.228 67.8V64.44C333.228 57.528 328.812 55.896 320.076 55.896ZM324.492 31.416H306.54V49.176H320.076C328.428 49.176 332.556 48.12 332.556 41.304V37.848C332.556 33.432 330.348 31.416 324.492 31.416ZM372.798 31.8V46.872H406.11V58.488H372.798V75H406.878V87H358.686V19.8H406.878V31.8H372.798ZM445.646 31.416H432.494V50.616H445.358C455.054 50.616 457.838 47.736 457.838 40.728C457.838 33.624 455.438 31.416 445.646 31.416ZM458.894 87L446.51 61.656H432.494V87H418.382V19.8H445.07C459.854 19.8 471.758 26.328 471.758 39.576V40.632C471.758 49.656 465.134 56.856 448.814 57.048L462.158 69.336L477.326 87H458.894Z" fill="black"/>
</svg>
