<svg width="355" height="55" viewBox="0 0 355 55" fill="none" xmlns="http://www.w3.org/2000/svg">
<rect width="355" height="55" rx="27.5" fill="black"/>
<path d="M40.1302 32.184C39.5542 37.432 35.3302 39.416 30.5302 39.416C23.0742 39.416 19.7142 34.648 19.7142 27.608C19.7142 20.632 23.4262 15.416 30.7862 15.416C35.3942 15.416 39.8742 17.464 40.0022 22.712H34.8182C34.5622 20.408 33.0262 19.192 30.7862 19.192C26.2742 19.192 24.8982 24.056 24.8982 27.768C24.8982 31.448 26.2742 35.736 30.6262 35.736C32.8982 35.736 34.5622 34.52 34.9142 32.184H40.1302ZM36.4822 9.528L32.8662 14.168H28.5142L24.9302 9.528H28.0662L30.7222 12.376L33.2822 9.528H36.4822ZM57.3062 39H52.8902C52.6342 38.264 52.5382 37.56 52.5062 36.792C51.1942 38.712 49.6262 39.32 47.3542 39.32C44.2182 39.32 41.7222 37.784 41.7222 34.392C41.7222 29.368 47.4502 28.92 51.1942 28.92H52.5062V28.312C52.5062 26.616 52.1542 24.952 50.0742 24.952C48.2822 24.952 47.5782 25.976 47.5782 27.48H42.8102C42.8742 23.512 46.6182 22.392 50.0102 22.392C54.3622 22.392 57.0502 23.384 57.0502 28.664V33.464C57.0502 35.288 57.0502 37.112 57.3062 39ZM52.5062 31.48C52.5062 31.448 52.5062 31.224 52.5062 31.192C52.0582 31.192 51.7382 31.16 51.2902 31.16C49.3062 31.16 46.3302 31.608 46.3302 34.136C46.3302 35.608 47.5462 36.536 48.9542 36.536C51.9622 36.536 52.5062 33.912 52.5062 31.48ZM74.559 34.104C74.559 38.296 70.431 39.416 66.975 39.416C63.167 39.416 59.743 38.264 59.743 33.848H64.447C64.511 35.704 65.279 36.728 67.199 36.728C68.479 36.728 69.855 35.992 69.855 34.584C69.855 33.368 68.703 32.76 66.783 32.312L65.023 31.896C62.623 31.32 60.191 30.36 60.191 27.352C60.191 23.512 64.031 22.456 67.103 22.456C70.655 22.456 73.855 23.704 74.079 27.672H69.503C69.439 26.136 68.607 25.08 67.039 25.08C65.919 25.08 64.607 25.592 64.607 26.872C64.607 28.088 65.759 28.6 67.711 29.048L69.535 29.464C72.031 30.04 74.559 31.032 74.559 34.104ZM102.638 39H97.966V30.456C97.966 28.216 97.806 25.752 94.926 25.752C91.982 25.752 91.534 29.048 91.534 30.872V39H86.862V26.04C86.862 25.016 86.83 23.96 86.734 22.872H91.374L91.438 25.336C92.878 23.48 94.382 22.616 96.75 22.616C100.686 22.616 102.638 24.728 102.638 28.568V39ZM121.545 31.832H109.897C109.865 34.264 110.889 36.568 113.609 36.568C115.497 36.568 116.585 35.64 116.841 33.752H121.385C120.809 37.944 117.321 39.352 113.545 39.352C108.329 39.352 105.353 36.408 105.353 31.192C105.353 25.816 108.169 22.424 113.705 22.424C116.841 22.424 119.593 23.704 120.841 26.712C121.513 28.28 121.545 29.912 121.545 31.832ZM117.033 29.144C117.033 26.712 115.913 25.176 113.673 25.176C111.369 25.176 109.993 26.84 109.993 29.144H117.033ZM141.227 30.648C141.227 35.128 138.955 39.32 133.963 39.32C131.787 39.32 130.411 38.616 129.035 36.92V45.08H124.363V26.84C124.363 25.56 124.299 24.216 124.235 22.872H128.811L128.875 25.336C130.187 23.384 131.915 22.52 134.219 22.52C139.051 22.52 141.227 26.264 141.227 30.648ZM136.427 30.808C136.427 28.472 135.595 25.432 132.747 25.432C129.771 25.432 128.939 28.536 128.939 31C128.939 33.304 129.643 36.472 132.491 36.472C135.563 36.472 136.427 33.336 136.427 30.808ZM154.308 26.872C153.796 26.808 153.348 26.776 152.9 26.776C149.892 26.776 148.708 28.504 148.708 31.384V39H144.036V26.808C144.036 25.528 143.908 24.216 143.908 22.872H148.42L148.548 25.848C149.604 23.736 151.204 22.776 153.54 22.776C153.796 22.776 154.02 22.776 154.308 22.808V26.872ZM170.906 31.832H159.258C159.226 34.264 160.25 36.568 162.97 36.568C164.858 36.568 165.946 35.64 166.202 33.752H170.746C170.17 37.944 166.682 39.352 162.906 39.352C157.69 39.352 154.714 36.408 154.714 31.192C154.714 25.816 157.53 22.424 163.066 22.424C166.202 22.424 168.954 23.704 170.202 26.712C170.874 28.28 170.906 29.912 170.906 31.832ZM166.394 29.144C166.394 26.712 165.274 25.176 163.034 25.176C160.73 25.176 159.354 26.84 159.354 29.144H166.394ZM189.628 39H184.925L184.797 36.856C183.356 38.552 182.045 39.32 179.773 39.32C174.844 39.32 172.636 35.448 172.636 30.968C172.636 26.904 174.62 22.488 179.613 22.488C181.852 22.488 183.453 23.16 184.828 24.92V15.864H189.5V34.68C189.5 36.088 189.5 37.56 189.628 39ZM184.925 30.872C184.925 28.344 183.932 25.432 180.957 25.432C178.076 25.432 177.404 28.408 177.404 30.776C177.404 33.336 178.076 36.312 181.212 36.312C184.092 36.312 184.925 33.208 184.925 30.872ZM209.269 22.872L202.773 39H197.717L191.189 22.872H196.149L200.373 35.352L204.725 22.872H209.269ZM215.744 19.576H210.88V15.864H215.744V19.576ZM215.648 39H210.976V22.84H215.648V39ZM235.459 39H230.755L230.627 36.856C229.187 38.552 227.875 39.32 225.603 39.32C220.675 39.32 218.467 35.448 218.467 30.968C218.467 26.904 220.451 22.488 225.443 22.488C227.683 22.488 229.283 23.16 230.659 24.92V15.864H235.331V34.68C235.331 36.088 235.331 37.56 235.459 39ZM230.755 30.872C230.755 28.344 229.763 25.432 226.787 25.432C223.907 25.432 223.235 28.408 223.235 30.776C223.235 33.336 223.907 36.312 227.043 36.312C229.923 36.312 230.755 33.208 230.755 30.872ZM243.899 39H239.227V15.864H243.899V39ZM252.574 19.576H247.71V15.864H252.574V19.576ZM252.478 40.472C252.478 44.376 250.718 45.144 247.07 45.144C246.398 45.144 245.726 45.112 245.022 45.08V41.88C245.278 41.912 245.502 41.944 245.758 41.944C247.262 41.944 247.806 40.952 247.806 39.384V22.84H252.478V40.472ZM261.152 19.576H256.288V15.864H261.152V19.576ZM261.056 39H256.384V22.84H261.056V39ZM280.835 22.872L274.339 39H269.283L262.755 22.872H267.715L271.939 35.352L276.291 22.872H280.835ZM298.521 30.872C298.521 36.248 295.033 39.384 289.721 39.384C284.345 39.384 280.985 36.312 280.985 30.872C280.985 25.496 284.601 22.424 289.849 22.424C295.161 22.424 298.521 25.496 298.521 30.872ZM293.657 30.904C293.657 28.312 292.825 25.24 289.721 25.24C286.585 25.24 285.849 28.312 285.849 30.904C285.849 33.464 286.585 36.6 289.721 36.6C292.825 36.6 293.657 33.464 293.657 30.904ZM315.132 34.104C315.132 38.296 311.004 39.416 307.548 39.416C303.74 39.416 300.316 38.264 300.316 33.848H305.02C305.084 35.704 305.852 36.728 307.772 36.728C309.052 36.728 310.428 35.992 310.428 34.584C310.428 33.368 309.276 32.76 307.356 32.312L305.596 31.896C303.196 31.32 300.764 30.36 300.764 27.352C300.764 23.512 304.604 22.456 307.676 22.456C311.228 22.456 314.428 23.704 314.652 27.672H310.076C310.012 26.136 309.18 25.08 307.612 25.08C306.492 25.08 305.18 25.592 305.18 26.872C305.18 28.088 306.332 28.6 308.284 29.048L310.108 29.464C312.604 30.04 315.132 31.032 315.132 34.104ZM327.516 25.912H323.708V33.272C323.708 35.16 323.804 36.056 325.98 36.056C326.492 36.056 326.94 35.96 327.484 35.928V38.968C326.364 39.128 325.276 39.224 324.156 39.224C320.924 39.224 319.164 38.424 319.164 34.904V25.912H316.06V22.84H319.164V20.152L323.708 18.296V22.84H327.516V25.912ZM334.515 19.576H329.651V15.864H334.515V19.576ZM334.419 39H329.747V22.84H334.419V39Z" fill="white"/>
</svg>
