<svg width="214" height="214" viewBox="0 0 214 214" fill="none" xmlns="http://www.w3.org/2000/svg">
<g filter="url(#filter0_f_1397_419)">
<circle cx="106.699" cy="106.7" r="73" fill="#AC00FF"/>
</g>
<path d="M77.883 85.372H72.531V99.7H68.019V85.372H62.667V82.348H77.883V85.372ZM83.4426 85.396H79.2426V82.348H83.4426V85.396ZM83.4426 99.7H79.2426V87.58H83.4426V99.7ZM98.4842 95.116C98.2682 98.908 95.7482 99.988 92.2202 99.988C89.9882 99.988 88.4282 99.46 87.3002 98.404C86.1722 97.324 85.5242 95.692 85.5242 93.724C85.5242 91.732 86.1962 90.052 87.3962 88.924C88.5482 87.844 90.2042 87.244 92.3882 87.244C95.8682 87.244 98.1482 88.588 98.4362 91.948H94.3322C94.2842 90.436 93.6842 89.5 92.3162 89.5C90.2522 89.5 89.8202 91.564 89.8202 93.58C89.8202 95.572 90.2042 97.684 92.2442 97.684C93.7562 97.684 94.2842 96.7 94.3322 95.116H98.4842ZM104.502 99.7H100.302V82.348H104.502V99.7ZM104.598 92.932L108.894 87.58H113.742L109.134 92.716L114.27 99.7H109.23L104.598 92.932ZM127.118 94.324H118.07C118.094 96.22 118.79 97.756 120.686 97.756C122.054 97.756 122.846 97.06 123.014 95.692H126.998C126.83 96.844 126.326 97.732 125.558 98.428C124.358 99.532 122.63 99.964 120.638 99.964C118.214 99.964 116.534 99.34 115.406 98.068C114.494 97.036 113.99 95.548 113.99 93.82C113.99 89.764 116.27 87.268 120.71 87.268C123.446 87.268 125.582 88.3 126.566 90.58C127.046 91.684 127.118 92.812 127.118 94.324ZM123.086 92.26C123.086 90.46 122.294 89.404 120.734 89.404C119.15 89.404 118.142 90.532 118.142 92.26H123.086ZM137.06 90.22H134.132V95.236C134.132 96.652 134.42 97.156 135.86 97.156C136.22 97.156 136.628 97.132 137.036 97.06V99.676C136.076 99.796 135.188 99.892 134.324 99.892C131.372 99.892 130.1 99.196 130.1 96.268V90.22H127.82V87.58H130.1V85.42L134.132 83.836V87.58H137.06V90.22ZM150.026 96.028C150.026 98.98 146.954 99.988 143.954 99.988C140.954 99.988 137.954 99.148 137.954 95.836H142.034C142.082 97.228 142.682 97.924 144.026 97.924C145.034 97.924 146.042 97.42 146.042 96.388C146.042 95.668 145.37 95.236 143.882 94.876L141.938 94.42C139.994 93.964 138.29 93.196 138.29 91.06C138.29 88.06 141.506 87.292 143.882 87.292C146.522 87.292 149.546 88.084 149.666 91.204H145.73C145.706 90.004 144.986 89.332 143.906 89.332C143.042 89.332 142.106 89.74 142.106 90.652C142.106 91.324 142.562 91.684 143.45 91.9L146.066 92.524C148.802 93.172 150.026 94.108 150.026 96.028ZM66.1014 125.7H62.1654C61.9974 125.124 61.9254 124.596 61.8774 123.9C60.9174 125.412 59.6694 125.94 57.7734 125.94C55.2534 125.94 53.4294 124.74 53.4294 122.22C53.4294 118.692 57.2454 118.14 60.7494 118.14H61.8774V117.372C61.8774 116.292 61.4454 115.284 60.1014 115.284C58.8294 115.284 58.3014 115.98 58.3014 117.06H54.1974C54.2934 113.964 57.4854 113.268 60.0534 113.268C62.2134 113.268 63.7974 113.556 64.7814 114.564C65.5254 115.308 65.9094 116.34 65.9094 118.02V121.836C65.9094 123.228 65.9094 124.38 66.1014 125.7ZM61.8774 120.084V119.916C61.5894 119.892 60.9894 119.892 60.7734 119.892C59.3094 119.892 57.4134 120.348 57.4134 122.004C57.4134 123.036 58.2534 123.708 59.2614 123.708C61.3974 123.708 61.8774 121.908 61.8774 120.084ZM81.2154 113.58L76.2714 125.7H71.6154L66.6474 113.58H71.1594L74.0634 122.316L77.0874 113.58H81.2154ZM93.8636 125.7H89.9276C89.7596 125.124 89.6876 124.596 89.6396 123.9C88.6796 125.412 87.4316 125.94 85.5356 125.94C83.0156 125.94 81.1916 124.74 81.1916 122.22C81.1916 118.692 85.0076 118.14 88.5116 118.14H89.6396V117.372C89.6396 116.292 89.2076 115.284 87.8636 115.284C86.5916 115.284 86.0636 115.98 86.0636 117.06H81.9596C82.0556 113.964 85.2476 113.268 87.8156 113.268C89.9756 113.268 91.5596 113.556 92.5436 114.564C93.2876 115.308 93.6716 116.34 93.6716 118.02V121.836C93.6716 123.228 93.6716 124.38 93.8636 125.7ZM89.6396 120.084V119.916C89.3516 119.892 88.7516 119.892 88.5356 119.892C87.0716 119.892 85.1756 120.348 85.1756 122.004C85.1756 123.036 86.0156 123.708 87.0236 123.708C89.1596 123.708 89.6396 121.908 89.6396 120.084ZM100.617 111.396H96.4166V108.348H100.617V111.396ZM100.617 125.7H96.4166V113.58H100.617V125.7ZM107.642 125.7H103.442V108.348H107.642V125.7ZM122.3 125.7H118.364C118.196 125.124 118.124 124.596 118.076 123.9C117.116 125.412 115.868 125.94 113.972 125.94C111.452 125.94 109.628 124.74 109.628 122.22C109.628 118.692 113.444 118.14 116.948 118.14H118.076V117.372C118.076 116.292 117.644 115.284 116.3 115.284C115.028 115.284 114.5 115.98 114.5 117.06H110.396C110.492 113.964 113.684 113.268 116.252 113.268C118.412 113.268 119.996 113.556 120.98 114.564C121.724 115.308 122.108 116.34 122.108 118.02V121.836C122.108 123.228 122.108 124.38 122.3 125.7ZM118.076 120.084V119.916C117.788 119.892 117.188 119.892 116.972 119.892C115.508 119.892 113.612 120.348 113.612 122.004C113.612 123.036 114.452 123.708 115.46 123.708C117.596 123.708 118.076 121.908 118.076 120.084ZM138.365 119.532C138.365 123.108 136.613 125.964 132.797 125.964C131.093 125.964 130.061 125.388 128.981 124.116L128.933 125.7H124.781C124.853 124.86 124.853 123.276 124.853 122.46V108.348H129.053V115.308C130.109 113.94 131.309 113.292 133.037 113.292C136.757 113.292 138.365 115.956 138.365 119.532ZM134.093 119.58C134.093 117.612 133.565 115.692 131.597 115.692C129.557 115.692 128.933 117.588 128.933 119.676C128.933 121.572 129.485 123.588 131.429 123.588C133.541 123.588 134.093 121.644 134.093 119.58ZM144.657 125.7H140.457V108.348H144.657V125.7ZM159.866 120.324H150.818C150.842 122.22 151.538 123.756 153.434 123.756C154.802 123.756 155.594 123.06 155.762 121.692H159.746C159.578 122.844 159.074 123.732 158.306 124.428C157.106 125.532 155.378 125.964 153.386 125.964C150.962 125.964 149.282 125.34 148.154 124.068C147.242 123.036 146.738 121.548 146.738 119.82C146.738 115.764 149.018 113.268 153.458 113.268C156.194 113.268 158.33 114.3 159.314 116.58C159.794 117.684 159.866 118.812 159.866 120.324ZM155.834 118.26C155.834 116.46 155.042 115.404 153.482 115.404C151.898 115.404 150.89 116.532 150.89 118.26H155.834Z" fill="white"/>
<defs>
<filter id="filter0_f_1397_419" x="-0.000782013" y="-3.8147e-06" width="213.4" height="213.4" filterUnits="userSpaceOnUse" color-interpolation-filters="sRGB">
<feFlood flood-opacity="0" result="BackgroundImageFix"/>
<feBlend mode="normal" in="SourceGraphic" in2="BackgroundImageFix" result="shape"/>
<feGaussianBlur stdDeviation="16.85" result="effect1_foregroundBlur_1397_419"/>
</filter>
</defs>
</svg>
